<svg xmlns="http://www.w3.org/2000/svg" viewBox="0 0 18 16.01"><defs><style>.cls-1{fill:none;}.cls-2{fill:#fff;}.cls-3{fill:#474d8b;}</style></defs><g id="Layer_2" data-name="Layer 2"><g id="Layer_1-2" data-name="Layer 1"><path class="cls-1" d="M12.57,3.77V3.44l-2.32-.77a1.82,1.82,0,0,1-1.57.92,1.78,1.78,0,0,1-1.51-.84L4.93,3.5v.32A1.8,1.8,0,0,1,6.18,5.53a2,2,0,0,1,0,.43l1.37.66V8.43a1.82,1.82,0,0,1,1.11.75l.8-.36V6.14l1.74-.61h0A1.81,1.81,0,0,1,12.57,3.77Z"/><path class="cls-2" d="M7.5,9.52a.79.79,0,0,0-.37-.1.77.77,0,0,0-.51.2.75.75,0,0,0,0,1.14.77.77,0,0,0,.51.2.79.79,0,0,0,.37-.1.72.72,0,0,0,.33-.36.67.67,0,0,0,.07-.31.75.75,0,0,0-.26-.57A.71.71,0,0,0,7.5,9.52Zm0,4.1A.74.74,0,0,0,7,13.45a.77.77,0,1,0,.48.17ZM4.93,5l-.15-.11a.77.77,0,0,0-.39-.11.74.74,0,0,0-.34.08.41.41,0,0,0-.11.07.74.74,0,0,0-.31.51.41.41,0,0,0,0,.11.83.83,0,0,0,0,.22A.77.77,0,0,0,4,6.2a.71.71,0,0,0,.65,0,.77.77,0,0,0,.46-.57.66.66,0,0,0,0-.14v0A.77.77,0,0,0,4.93,5Zm8.38-.13A.87.87,0,0,0,13,4.76a.76.76,0,0,0-.66.38.77.77,0,0,0-.11.39.77.77,0,0,0,.2.51A.75.75,0,0,0,13,6.3.74.74,0,0,0,13.57,6a.75.75,0,0,0,.15-.44A.73.73,0,0,0,13.5,5,.7.7,0,0,0,13.31,4.85Zm3.3,4.69a.78.78,0,0,0-.4-.12.8.8,0,0,0-.48.17.76.76,0,0,0-.29.6.77.77,0,1,0,1.17-.65ZM8.68,1A.77.77,0,0,0,8,1.56a.85.85,0,0,0,0,.23.77.77,0,0,0,.3.61.76.76,0,0,0,.47.16.77.77,0,0,0,.55-.23.76.76,0,0,0,.22-.54,1,1,0,0,0,0-.17A.76.76,0,0,0,8.68,1Z"/><path class="cls-3" d="M16.61,8.44V6.2l-1.87-.72a1.8,1.8,0,0,0-1.43-1.71V2.91L10.47,2V1.79a1.79,1.79,0,0,0-3.58,0v.12l-2.84,1v.91A1.8,1.8,0,0,0,2.59,5.53a2.21,2.21,0,0,0,0,.37l-1.36.65V8.47A1.81,1.81,0,0,0,0,10.19,1.8,1.8,0,1,0,2.15,8.43V7.1L3,6.69a1.82,1.82,0,0,0,1.37.63,1.79,1.79,0,0,0,1.32-.59l.91.44v1.3a1.8,1.8,0,0,0,0,3.44v.56a1.79,1.79,0,1,0,.88,0V12a1.8,1.8,0,0,0,1.42-1.76,1.09,1.09,0,0,0,0-.18l1.38-.62V6.76l1.08-.37A1.82,1.82,0,0,0,13,7.32a1.78,1.78,0,0,0,1.59-1l1.19.46V8.46a1.79,1.79,0,1,0,.88,0ZM8,1.56a.77.77,0,0,1,1.48.06,1,1,0,0,1,0,.17.76.76,0,0,1-.22.54.77.77,0,0,1-.55.23.76.76,0,0,1-.47-.16.77.77,0,0,1-.3-.61A.85.85,0,0,1,8,1.56ZM5.14,5.67a.77.77,0,0,1-.46.57A.71.71,0,0,1,4,6.2a.77.77,0,0,1-.38-.45.83.83,0,0,1,0-.22.41.41,0,0,1,0-.11.74.74,0,0,1,.31-.51.41.41,0,0,1,.11-.07.74.74,0,0,1,.34-.08.77.77,0,0,1,.39.11L4.93,5a.77.77,0,0,1,.22.51v0A.66.66,0,0,1,5.14,5.67Zm2.65,8.55a.77.77,0,0,1-1.54,0A.77.77,0,0,1,7,13.45a.74.74,0,0,1,.48.17A.77.77,0,0,1,7.79,14.22Zm0-3.72a.72.72,0,0,1-.33.36.79.79,0,0,1-.37.1.77.77,0,0,1,0-1.54.79.79,0,0,1,.37.1.71.71,0,0,1,.14.1.75.75,0,0,1,.26.57A.67.67,0,0,1,7.83,10.5Zm3.32-5h0l-1.74.61V8.82l-.8.36A1.82,1.82,0,0,0,7.5,8.43V6.62L6.12,6a1.54,1.54,0,0,0,.06-.43A1.8,1.8,0,0,0,4.93,3.82V3.5l2.24-.75a1.78,1.78,0,0,0,1.51.84,1.82,1.82,0,0,0,1.57-.92l2.32.77v.33A1.81,1.81,0,0,0,11.15,5.53ZM13.57,6A.74.74,0,0,1,13,6.3.75.75,0,0,1,12.38,6a.77.77,0,0,1-.2-.51.77.77,0,0,1,.11-.39A.76.76,0,0,1,13,4.76a.87.87,0,0,1,.36.09A.7.7,0,0,1,13.5,5a.73.73,0,0,1,.22.53A.75.75,0,0,1,13.57,6Zm2.64,5a.77.77,0,0,1-.77-.77.76.76,0,0,1,.29-.6.8.8,0,0,1,.48-.17.77.77,0,0,1,0,1.54Z"/></g></g></svg>