<svg xmlns="http://www.w3.org/2000/svg" viewBox="0 0 434 101.12"><defs><style>.cls-1{fill:#f89839;}.cls-2{fill:#231f20;}.cls-3{fill:#f89838;}.cls-4{fill:#fff;}</style></defs><g id="Layer_2" data-name="Layer 2"><g id="Layer_1-2" data-name="Layer 1"><path class="cls-1" d="M166.76,22.28A18.57,18.57,0,0,1,170,33.21q0,6.56-3.22,10.54a16.42,16.42,0,0,1-5.29,4.09,15.55,15.55,0,0,1,8,6.31,19.48,19.48,0,0,1,2.71,10.5,21.46,21.46,0,0,1-3.09,11.42,19.69,19.69,0,0,1-4.93,5.63,18.83,18.83,0,0,1-7.85,3.6,46.48,46.48,0,0,1-9.81,1H115.18V14.65h33.58Q161.46,14.85,166.76,22.28ZM129,27.09V42.88h16.89a13.64,13.64,0,0,0,7.34-1.77c1.88-1.18,2.83-3.28,2.83-6.29q0-5-3.74-6.61a25.25,25.25,0,0,0-8.21-1.12Zm0,27.65V73.83h16.87a16,16,0,0,0,7-1.26q4.58-2.34,4.57-8.94,0-5.6-4.42-7.68a17.07,17.07,0,0,0-7-1.21Z"/><path class="cls-1" d="M193,86.27H180.65V26.87H193Z"/><path class="cls-1" d="M250.33,81q-6.74,6.93-19.46,6.93T211.4,81q-9-8.51-9-24.5,0-16.32,9-24.5,6.73-6.93,19.47-6.93T250.33,32q9,8.18,9,24.5Q259.32,72.49,250.33,81Zm-7.76-9q4.34-5.43,4.34-15.47T242.57,41a14.14,14.14,0,0,0-11.7-5.46A14.37,14.37,0,0,0,219.1,41q-4.4,5.45-4.39,15.48T219.1,72a14.34,14.34,0,0,0,11.77,5.44A14.15,14.15,0,0,0,242.57,72Z"/><path class="cls-2" d="M276.39,22.13q8.66-8.84,22-8.84,17.88,0,26.15,11.86a25.8,25.8,0,0,1,4.9,13.36h-15a20.59,20.59,0,0,0-3.67-7.78c-2.66-3.11-6.62-4.66-11.85-4.66a14.61,14.61,0,0,0-12.62,6.58q-4.61,6.59-4.61,18.64t4.87,18.05a15.28,15.28,0,0,0,12.38,6q7.69,0,11.74-5.15a22.61,22.61,0,0,0,3.71-8.31h14.87a32.31,32.31,0,0,1-9.83,19.05q-7.92,7.33-20.26,7.33-15.3,0-24-9.91T266.44,51Q266.44,32.29,276.39,22.13Z"/><path class="cls-2" d="M370.34,26.87H384.4L364.54,64V86.27H352.13V64L331.57,26.87H346.2l12.33,25.87Z"/><path class="cls-2" d="M390,33.08q7.18-7.33,18.26-7.34,14.83,0,21.69,9.83A21.45,21.45,0,0,1,434,46.66H421.6a17,17,0,0,0-3.05-6.45q-3.32-3.87-9.83-3.87a12.11,12.11,0,0,0-10.46,5.46q-3.83,5.46-3.83,15.45t4,15a12.69,12.69,0,0,0,10.27,5q6.39,0,9.74-4.27A18.76,18.76,0,0,0,421.55,66h12.34a26.84,26.84,0,0,1-8.16,15.8q-6.56,6.07-16.8,6.08-12.68,0-19.94-8.22t-7.25-22.65Q381.74,41.5,390,33.08Z"/><path class="cls-3" d="M88.18,51.45A39.28,39.28,0,1,1,49.39,11.67,39.28,39.28,0,0,1,88.18,51.45Z"/><path class="cls-4" d="M79.14,76A20.15,20.15,0,0,0,68.2,67.45,41.36,41.36,0,0,0,63.26,66c-3.74-.75-11.37-1.88-11.37-1.88C50,63.85,48.15,63.5,46.33,63L46.11,63l13.48-5.24c-1.08,1.64-2.25,3.17-3,4.1,2.05.32,4.39.65,6.16,1,.54-.79,1.61-2.33,2.55-4,2.47-4.29,3.39-8.09,2.9-12a16,16,0,0,0-1.57-5.19,14.14,14.14,0,0,0-5.72-5.94,22.88,22.88,0,0,0-7.17-2.67c-3.08-.6-6.22-1.12-9.26-1.62l-2.19-.37a57.59,57.59,0,0,1-8.1-1.81l12.52-4.86A28.13,28.13,0,0,1,44,28.61c1,.2,5,.85,6,1a23.24,23.24,0,0,0,2-3.46,21.76,21.76,0,0,0,2.59-12,19,19,0,0,0-.32-2.1,38.85,38.85,0,0,0-4.87-.4c-.55,0-1.09.05-1.64.06l-24,9.34a1.11,1.11,0,0,1-.07-.16,38.25,38.25,0,0,0-4.08,4,21.42,21.42,0,0,0,1.25,1.94,21.77,21.77,0,0,0,10,7.11A52.77,52.77,0,0,0,41,36.44l3.08.5c2.42.39,4.91.79,7.35,1.24.5.09,1,.21,1.43.32L39.24,43.8c.14-.19.25-.38.4-.57.9-1.2,1.71-2,2.65-3.19-2-.36-4.38-.87-6-1.06-.63.82-1.13,1.24-1.74,2.06A22.91,22.91,0,0,0,31,47.85a14.19,14.19,0,0,0-.21,8.25A15.63,15.63,0,0,0,33.14,61c2.25,3.19,5.49,5.37,10.21,6.87A45,45,0,0,0,48.06,69L59.4,70.84c1.52.27,3,.59,4.5,1,.56.14,1.08.3,1.58.46L51.65,77.66c.26-.46.54-.92.85-1.41a25.89,25.89,0,0,1,1.86-2.7c-1.85-.42-4.37-.7-6.07-1a30.25,30.25,0,0,0-1.91,3.35,20.12,20.12,0,0,0-2.25,14,39.92,39.92,0,0,0,4.27.29c.55,0,1.08,0,1.62-.06l24.54-9.53A38.6,38.6,0,0,0,79.14,76ZM29.83,27.45a15.37,15.37,0,0,1-4.29-3.59l23.52-9.13a15.24,15.24,0,0,1-.54,5.46Zm6.36,22.4A15.52,15.52,0,0,1,37,47.76L57,40a16.12,16.12,0,0,1,1.42.78,9.36,9.36,0,0,1,3.09,3.11L35.93,53.8A9.55,9.55,0,0,1,36.19,49.85Zm5.14,11.2-.69-.39a10.86,10.86,0,0,1-3.38-3.33l25.55-9.92a11.23,11.23,0,0,1-.34,4.31c-.12.42-.26.85-.41,1.27Zm7.89,25.39a13.49,13.49,0,0,1,.57-4.5L69.73,74.2a13.16,13.16,0,0,1,3.46,2.93Z"/><path class="cls-3" d="M59.88,97.75a3.37,3.37,0,1,1-3.37-3.37A3.37,3.37,0,0,1,59.88,97.75Z"/><path class="cls-3" d="M7.55,65.93a3.37,3.37,0,1,1-3.37-3.36A3.37,3.37,0,0,1,7.55,65.93Z"/><path class="cls-3" d="M14.16,23.14a3.36,3.36,0,1,1-3.36-3.36A3.35,3.35,0,0,1,14.16,23.14Z"/><path class="cls-3" d="M74.67,9.52a3.37,3.37,0,1,1-3.36-3.37A3.36,3.36,0,0,1,74.67,9.52Z"/><path class="cls-3" d="M92.7,76.08a3.37,3.37,0,1,1-3.37-3.36A3.37,3.37,0,0,1,92.7,76.08Z"/><path class="cls-2" d="M5.68,36,9,37.22,7.47,27.71,0,33.79l3.42,1.3a48,48,0,0,0-2,24.22,1.2,1.2,0,0,0,1.19,1h.21a1.22,1.22,0,0,0,1-1.4A45.72,45.72,0,0,1,5.68,36Z"/><path class="cls-2" d="M49.2,97.14a45.92,45.92,0,0,1-38-20l3-1.94-8.57-4.4.48,9.62,3-2a48.34,48.34,0,0,0,40,21.1,1.21,1.21,0,0,0,0-2.42Z"/><path class="cls-2" d="M83.29,82.05A46.58,46.58,0,0,1,68.82,92.74l-1.43-3.29L61.66,97.2l9.57,1.09L69.78,95a49,49,0,0,0,15.3-11.29,1.21,1.21,0,0,0-1.79-1.62Z"/><path class="cls-2" d="M95.76,63.28A41,41,0,0,0,97.7,51a48.16,48.16,0,0,0-19.52-38.9,1.21,1.21,0,0,0-1.45,1.94A45.72,45.72,0,0,1,95.28,51a38.22,38.22,0,0,1-1.8,11.44L90.11,61.3l1.79,9.47,7.31-6.28Z"/><path class="cls-2" d="M66.81,6.59,59.78,0,59,3.54a49,49,0,0,0-9.75-1A48.13,48.13,0,0,0,14.59,17.05a1.2,1.2,0,0,0,0,1.71,1.19,1.19,0,0,0,.84.34,1.22,1.22,0,0,0,.87-.36A45.72,45.72,0,0,1,49.2,5a46.54,46.54,0,0,1,9.2.93l-.82,3.49Z"/></g></g></svg>